<?xml version="1.0" ?>
<!-- Uploaded to: SVG Repo, www.svgrepo.com, Generator: SVG Repo Mixer Tools -->
<svg width="800px" height="800px" viewBox="0 0 512 512" xmlns="http://www.w3.org/2000/svg">
<defs>
<style>.e{fill:#f4c762;}.f{fill:#eab84b;}.g{fill:#ededed;}.h{fill:#cecece;}.i{fill:#bebebe;}.j{fill:#cc993e;}.k{fill:#dfdfdf;}.l{fill:#41a08e;}.m{fill:#349381;}.n{fill:#365650;}.o{fill:#9b9b9b;}.p{fill:#6e6e6e;}.q{fill:#575757;}.r{fill:#75bbad;}</style>
</defs>
<g id="a"/>
<g id="b"/>
<g id="c">
<g>
<path class="p" d="M482.61639,298.3147c-1.61871-11.33105-9.16638-20.93481-19.79388-25.18579l-22.82251-9.12891v-32h-32v32l-22.82251,9.12891c-10.6275,4.25098-18.17517,13.85474-19.79388,25.18579l-5.38361,37.6853h128l-5.38361-37.6853Z"/>
<path class="e" d="M462.82251,273.12891l-22.82251-9.12891c-8.83655,8.83643-23.16345,8.83643-32,0l-22.82251,9.12891c-10.6275,4.25098-18.17517,13.85474-19.79388,25.18579l-5.38361,37.6853h128l-5.38361-37.6853c-1.61871-11.33105-9.16638-20.93481-19.79388-25.18579Z"/>
<path class="f" d="M474.6908,222.21973c3.25934-2.9292,5.3092-7.17725,5.3092-11.9043,0-6.94775-4.42841-12.86108-10.61639-15.07178,2.45569-3.13208,3.91968-7.07861,3.91968-11.36719,0-10.18359-8.25537-18.43896-18.43896-18.43896-3.3996,0-6.58423,.91992-9.31873,2.52466-1.65332-9.07886-9.60175-15.96216-19.15784-15.96216-8.88135,0-16.37408,5.94556-18.71515,14.07349-3.28406-2.36499-7.31561-3.75806-11.67261-3.75806-11.04572,0-20,8.95435-20,20,0,4.69482,1.61768,9.01172,4.32593,12.42383-7.0658,1.66016-12.32593,8.00391-12.32593,15.57617,0,4.80054,2.11407,9.10718,5.46204,12.03979l.00281-.00317c-1.56433,2.58276-2.46484,5.6123-2.46484,8.85229,0,9.4502,7.66089,17.11108,17.11102,17.11108,6.10193,0,11.45782-3.19385,14.48712-8.00122l2.21655-3.55737-.04273-4.75684h41.4914l.75433,4.26782c1.4422,7.43433,7.98724,13.04761,15.84326,13.04761,8.91333,0,16.13904-7.22559,16.13904-16.13916,0-4.23413-1.63068-8.08765-4.29822-10.96655l-.01099,.01001Z"/>
<path class="f" d="M108.40137,157.60083c-12.35406-8.23608-28.44867-8.23608-40.80273,0l-27.59863,18.39917,16,16H120l16-16-27.59863-18.39917Z"/>
<path class="k" d="M130.11926,272.70654l-26.11926-8.70654v-24h-32v24l-26.11926,8.70654c-13.06696,4.35547-21.88074,16.58398-21.88074,30.35767v32.93579H152v-32.93579c0-13.77368-8.81378-26.0022-21.88074-30.35767Z"/>
<path class="e" d="M24,303.06421v32.93579H152v-32.93579c0-13.77368-8.81378-26.0022-21.88074-30.35767l-26.11926-8.70654c-8.83655,8.83643-23.16345,8.83643-32,0l-26.11926,8.70654c-13.06696,4.35547-21.88074,16.58398-21.88074,30.35767Z"/>
<path class="j" d="M64,296l24-24,24,24,27.4696-18.31299c-2.76941-2.12573-5.90668-3.83252-9.35034-4.98047l-26.11926-8.70654c-8.83655,8.83643-23.16345,8.83643-32,0l-26.11926,8.70654c-3.44366,1.14795-6.58093,2.85474-9.35034,4.98047l27.4696,18.31299Z"/>
<path class="k" d="M119.81226,187.93945c-21.00995-5.25244-42.98993-5.25244-63.99988,0h-.00006v28.43604c0,17.6731,14.32684,32,31.99994,32h.00012c17.6731,0,31.99994-14.3269,31.99994-32v-28.43604h-.00006Z"/>
<path class="h" d="M308.51532,113.03052h-.00006c-2.87201-5.74414-3.15063-12.44214-.7655-18.40479v-.00024c6.07489-15.18701-1.7218-32.12744-16.6673-37.67236l-70.16101-.00146c-14.94806,5.54346-22.74664,22.48535-16.6712,37.67383v.00024c2.38513,5.96265,2.10651,12.66064-.7655,18.40479h-.00006c-7.41101,14.82202-9.27545,31.8064-5.25623,47.8833l1.13245,4.52979,113.27734,.00342,1.1333-4.5332c4.01923-16.0769,2.15479-33.06128-5.25623-47.8833Z"/>
<path class="g" d="M224,56v36.625c0,11.87427,6.70886,22.72949,17.32953,28.03979l7.51508,3.75757c4.50439,2.2522,9.8064,2.2522,14.31079,0l7.51508-3.75757c10.62067-5.3103,17.32953-16.16553,17.32953-28.03979V56h-64Z"/>
<path class="g" d="M323.06934,183.34668c-1.93658-9.68311-8.23535-17.92969-17.06775-22.34595l-34.00159-17.00073v-32h-32v32l-34.00159,17.00073c-8.8324,4.41626-15.13116,12.66284-17.06775,22.34595l-4.93066,24.65332h144l-4.93066-24.65332Z"/>
<path class="r" d="M188.93066,183.34668l-4.93066,24.65332h144l-4.93066-24.65332c-1.93658-9.68311-8.23535-17.92969-17.06775-22.34595l-34.00159-17.00073-16,16-16-16-34.00159,17.00073c-8.8324,4.41626-15.13116,12.66284-17.06775,22.34595Z"/>
<path class="o" d="M279.1554,94.31079l-16,8c-4.50439,2.2522-9.8064,2.2522-14.31079,0l-16-8c-5.42059-2.71021-8.8446-8.25049-8.8446-14.31079v12.625c0,11.87427,6.70886,22.72949,17.32953,28.03979l7.51508,3.75757c4.50439,2.2522,9.8064,2.2522,14.31079,0l7.51508-3.75757c10.62067-5.3103,17.32953-16.16553,17.32953-28.03979v-12.625c0,6.0603-3.42401,11.60059-8.8446,14.31079Z"/>
<path class="i" d="M216,56l11.53436,2.30687c18.79102,3.7582,38.14025,3.7582,56.93128,0l11.53436-2.30687v-.00003c0-17.67309-14.32687-31.99997-31.99997-31.99997h-16.00006c-17.67309,0-31.99997,14.32687-31.99997,31.99997v.00003Z"/>
<path class="p" d="M416.41054,186.52982h-.00002c-9.8002,3.26674-16.41052,12.43806-16.41052,22.76838v14.7018c0,5.12231,2.03483,10.03482,5.65685,13.65684l4.6863,4.6863c3.62202,3.62202,8.53453,5.65685,13.65684,5.65685h.00002c5.12231,0,10.03482-2.03483,13.65684-5.65685l4.6863-4.6863c3.62202-3.62202,5.65685-8.53453,5.65685-13.65684v-14.7018c0-10.33032-6.61032-19.50164-16.41052-22.76838h-.00002c-4.9264-1.64214-10.25252-1.64214-15.17892,0Z"/>
<path class="k" d="M56.27783,145.93359l-7.00293-3.86719c31.729-57.4502,86.31543-99.41895,149.7627-115.14551l1.9248,7.76562c-61.29297,15.19141-114.02832,55.74023-144.68457,111.24707Z"/>
<path class="k" d="M151.34717,467.58496c-51.55811-25.5498-91.96436-68.90039-113.77637-122.06641l7.40137-3.03711c21.07324,51.36621,60.11279,93.25,109.92676,117.93555l-3.55176,7.16797Z"/>
<path class="k" d="M360.65381,467.58398l-3.55176-7.16797c50.93164-25.23926,90.41455-68.22754,111.17529-121.04492l7.44531,2.92578c-21.48828,54.66992-62.354,99.16504-115.06885,125.28711Z"/>
<path class="k" d="M455.72217,145.93359c-30.65625-55.50684-83.3916-96.05566-144.68457-111.24707l1.9248-7.76562c63.44727,15.72656,118.03369,57.69531,149.7627,115.14551l-7.00293,3.86719Z"/>
<polygon class="l" points="272 144 256 160 240 144 224 152 256 192 288 152 272 144"/>
<polygon class="m" points="260 156 256 160 252 156 252 187 256 192 260 187 260 156"/>
<path class="h" d="M88,252c-5.60889,0-10.98438-1.25586-15.97754-3.73242l3.55469-7.16602c3.87842,1.92285,8.05811,2.89844,12.42285,2.89844,4.28613,0,8.39648-.94141,12.21729-2.79785l3.49609,7.19531c-4.91895,2.39062-10.20557,3.60254-15.71338,3.60254Z"/>
<path class="j" d="M483.92969,308.29297l.11084-.00952-1.13232-7.92627c-17.62054,2.49829-30.9082,17.82031-30.9082,35.64282h8c0-13.82812,10.28027-25.7207,23.92969-27.70703Z"/>
<path class="j" d="M472.2146,278.95557c-22.74677,10.65161-39.19897,31.57129-44.13696,56.26025l-.01025,.05371-.13568,.73047h8.16003c4.71686-22.271,19.86273-41.04565,40.67047-50.33691l.91888-.36963c-1.53558-2.33984-3.37122-4.47095-5.46649-6.33789Z"/>
<path class="j" d="M412.82324,332.2793c4.39355-21.96777,16.44775-41.77344,33.93359-55.7627l8.20459-6.53223-8.54828-3.41919-4.64655,3.69946c-10.61279,8.48975-19.37488,18.95532-25.8714,30.69849-3.85931-8.55249-10.25732-15.84546-18.42206-20.74341l-12.03308-7.1958-.26257,.10498c-2.81085,1.12427-5.39819,2.63232-7.72546,4.43848l15.91077,9.51465c8.87634,5.32593,15.23425,14.07324,17.60297,24.12085-1.58069,3.78516-2.94562,7.66675-4.06989,11.63403-7.46094-12.71509-20.72522-21.37549-35.91248-22.66797l-5.78894-.53027-1.13281,7.92969,6.21765,.56934c15.94128,1.35645,29.30847,12.50244,33.57733,27.8623h8.22253l.74408-3.7207Z"/>
<path class="l" d="M256,232c-70.69244,0-128,57.30762-128,128s57.30756,128,128,128,128-57.30762,128-128-57.30756-128-128-128Zm-96,128c0-47.56787,34.59631-87.05518,79.99951-94.67261l.00049,78.67261-65.9801,65.979c-8.89441-14.55811-14.0199-31.66992-14.0199-49.979Zm36.58929,75.41309l43.41071-43.41309,.00964,62.67432c-16.21191-2.71826-31.04633-9.49951-43.42035-19.26123Zm75.41101,19.25952l-.00031-62.67261,43.41125,43.4126c-12.37158,9.76001-27.2027,16.54077-43.41095,19.26001Zm65.97992-44.6936l-65.98022-65.979-.01654-78.67554c45.41156,7.6106,80.01654,47.10181,80.01654,94.67554,0,18.30884-5.12543,35.4209-14.01978,49.979Z"/>
<path class="q" d="M424,252c-5.93994,0-11.59814-2.23535-15.93311-6.29395l5.46777-5.83984c2.84717,2.66602,6.56348,4.13379,10.46533,4.13379,3.92529,0,7.65918-1.48438,10.51318-4.17871l5.49219,5.81641c-4.34521,4.10254-10.0293,6.3623-16.00537,6.3623Z"/>
<path class="n" d="M200.53662,96.11133c1.9585,4.89746,1.72949,10.41211-.62939,15.12988-7.83252,15.66602-9.80713,33.65039-5.55908,50.64258l.55536,2.22144c-4.99811,4.95923-8.46802,11.3208-9.8952,18.45728l-4.93066,24.65332,7.84473,1.56836,4.93066-24.65332c1.70654-8.5332,7.1499-15.66016,14.93457-19.55176l15.10919-7.55469,29.97968,37.47461c.75928,.94824,1.9082,1.50098,3.12354,1.50098s2.36426-.55273,3.12354-1.50098l29.9798-37.47461,15.10956,7.55469c7.78418,3.8916,13.22754,11.01855,14.93408,19.55176l4.93066,24.65332,7.84473-1.56836-4.93066-24.65332c-1.42719-7.13672-4.89709-13.49829-9.89514-18.45752l.5553-2.22119c4.24805-16.99219,2.27344-34.97656-5.55908-50.64258-2.35889-4.71777-2.58789-10.23242-.62939-15.12988,3.31152-8.27832,3.14648-17.32129-.46533-25.46289-2.4693-5.56689-6.31714-10.21631-11.15485-13.5918,.09338-.3396,.1568-.69043,.1568-1.05664,0-19.85059-16.14941-36-36-36h-16c-19.85059,0-36,16.14941-36,36,0,.36621,.06348,.71729,.15686,1.05664-4.83704,3.375-8.68451,8.02368-11.15393,13.58984-3.61279,8.1416-3.77832,17.18555-.46631,25.46484Zm27.46338-33.64844c9.29468,1.77832,18.64551,2.67773,28,2.67773,9.35272,0,18.70746-.89941,28-2.67773v17.53711c0,4.5752-2.5415,8.6875-6.63379,10.73242l-16.00049,8.00098c-3.35889,1.67969-7.37109,1.68066-10.73193-.00098l-16.00049-8c-4.0918-2.04492-6.6333-6.15723-6.6333-10.73242v-17.53711Zm3.05566,35.42578l15.99951,7.99902c2.80078,1.40137,5.87256,2.10156,8.94482,2.10156,3.07178,0,6.14453-.7002,8.94434-2.10059l15.99951-8c1.00037-.5,1.93762-1.08228,2.82159-1.72217-1.15106,8.97217-6.62903,16.79346-14.88361,20.92041l-7.51611,3.75781c-3.35889,1.67969-7.37158,1.68066-10.73242-.00098l-7.51465-3.75684c-8.25494-4.12695-13.73297-11.948-14.88409-20.92017,.88385,.63965,1.82092,1.22192,2.82111,1.72192Zm24.94434,56.4541l-12-11.99951v-15.87134l3.05518,1.5271c2.80078,1.40137,5.87256,2.10156,8.94482,2.10156,3.07178,0,6.14404-.7002,8.94385-2.10059l3.05615-1.52759v15.87085l-12,11.99951Zm-16.78937-5.47534l12.78937,12.78931v18.93994l-21.78503-27.23145,8.99567-4.4978Zm20.78937,31.72925v-18.93994l12.78937-12.78931,8.99573,4.4978-21.7851,27.23145Zm44.03564-87.45605c-2.80664,7.01758-2.47803,14.91895,.90185,21.67871,6.79389,13.58765,8.62537,29.1333,5.22724,43.91602-.77344-.46094-1.55994-.90527-2.37421-1.3125l-31.79053-15.89453v-19.33691c9.95349-6.48462,16-17.46973,16-29.56641v-30.93042c5.19281,2.54419,9.29193,6.802,11.68555,12.19702,2.72949,6.1543,2.854,12.99023,.3501,19.24902ZM248,28h16c14.34326,0,26.20215,10.83984,27.81348,24.75781l-8.13232,1.62695c-18.36816,3.67383-36.99463,3.67383-55.36279,0l-8.13184-1.62695c1.61133-13.91797,13.47021-24.75781,27.81348-24.75781Zm-39.68457,45.89062c2.39362-5.39502,6.49255-9.65137,11.68457-12.19556v30.92993c0,12.09644,6.04633,23.08154,16,29.56616v19.33716l-31.79004,15.89453c-.81439,.40723-1.60107,.85156-2.37469,1.31274-3.39813-14.78296-1.56665-30.32837,5.22723-43.91626,3.37989-6.75977,3.7085-14.66113,.90186-21.67871-2.50391-6.25977-2.37939-13.09668,.35107-19.25Z"/>
<path class="n" d="M244,344l-.00049-78.67285c0-1.17676-.51807-2.29395-1.41602-3.05371s-2.08447-1.08301-3.24609-.8916c-23.04736,3.86719-44.14453,15.83691-59.40527,33.70312-15.43311,18.06738-23.93213,41.12109-23.93213,64.91504,0,18.41992,5.05078,36.42383,14.60645,52.06445,.63965,1.04688,1.72314,1.74219,2.94092,1.88672,.15771,.01953,.31592,.02832,.47266,.02832,1.05469,0,2.07373-.41699,2.82861-1.17188l65.97998-65.97949c.75-.75,1.17139-1.76758,1.17139-2.82812Zm-69.11133,59.4541c-7.1377-13.30664-10.88867-28.22461-10.88867-43.4541,0-21.89062,7.81836-43.09961,22.01514-59.71973,13.00586-15.22656,30.61426-25.79688,49.98438-30.09961l.00049,72.16211-61.11133,61.11133Z"/>
<path class="n" d="M272.64453,261.37891c-1.16113-.19043-2.34814,.13184-3.24561,.89258-.89795,.75977-1.41602,1.87695-1.41553,3.05371l.0166,78.67578c0,1.06055,.42188,2.07715,1.17139,2.82715l65.98047,65.97852c.75488,.75488,1.77393,1.17188,2.82812,1.17188,.15723,0,.31543-.00879,.47314-.02832,1.21777-.14453,2.30127-.83984,2.94092-1.88672,9.55518-15.63965,14.60596-33.64355,14.60596-52.06348,0-23.79688-8.50098-46.85352-23.93751-64.92188-15.26464-17.86816-36.36669-29.83594-59.41796-33.69922Zm64.46729,142.07422l-61.1123-61.11035-.01514-72.16602c19.37354,4.2998,36.98633,14.87012,49.99561,30.09766,14.19971,16.62109,22.02002,37.83203,22.02002,59.72559,0,15.22949-3.75098,30.14746-10.88818,43.45312Z"/>
<path class="n" d="M241.53027,388.30469c-1.49414-.61914-3.21533-.27637-4.35889,.86719l-43.41064,43.41309c-.80762,.80762-1.23145,1.92285-1.16455,3.06348,.06738,1.13965,.61865,2.19727,1.51562,2.90527,13.14404,10.36914,28.78662,17.30762,45.23682,20.06543,.22021,.03613,.44092,.05469,.66113,.05469,.93896,0,1.85693-.33105,2.58447-.94727,.89795-.75977,1.41553-1.87695,1.41553-3.05371l-.00977-62.67383c-.00049-1.61719-.9751-3.07617-2.46973-3.69434Zm-38.85156,46.67578l33.32275-33.3252,.00732,48.16504c-11.9502-2.6543-23.32324-7.71777-33.33008-14.83984Z"/>
<path class="n" d="M274.82861,389.17188c-1.14404-1.14355-2.86377-1.48535-4.35938-.86719-1.49463,.61914-2.46924,2.07715-2.46924,3.69531l.00049,62.67285c0,1.17676,.51807,2.29395,1.41602,3.05371,.72754,.61523,1.64502,.94629,2.58398,.94629,.22021,0,.44141-.01855,.66211-.05469,16.44678-2.75977,32.08545-9.69824,45.22607-20.06445,.89697-.70801,1.44824-1.76562,1.51562-2.90625,.06689-1.13965-.35693-2.25488-1.16455-3.0625l-43.41113-43.41309Zm1.17188,60.64746l-.00049-48.16211,33.32129,33.32324c-10.00244,7.11914-21.375,12.18262-33.3208,14.83887Z"/>
<path class="n" d="M200.9624,34.68652l-1.9248-7.76562c-63.44727,15.72656-118.03369,57.69531-149.7627,115.14551l7.00293,3.86719c30.65625-55.50684,83.3916-96.05566,144.68457-111.24707Z"/>
<path class="n" d="M44.97217,342.48145l-7.40137,3.03711c21.81201,53.16602,62.21826,96.5166,113.77637,122.06641l3.55176-7.16797c-49.81396-24.68555-88.85352-66.56934-109.92676-117.93555Z"/>
<path class="n" d="M357.10205,460.41602l3.55176,7.16797c52.71484-26.12207,93.58057-70.61719,115.06885-125.28711l-7.44531-2.92578c-20.76074,52.81738-60.24365,95.80566-111.17529,121.04492Z"/>
<path class="n" d="M455.72217,145.93359l7.00293-3.86719c-31.729-57.4502-86.31543-99.41895-149.7627-115.14551l-1.9248,7.76562c61.29297,15.19141,114.02832,55.74023,144.68457,111.24707Z"/>
<path class="n" d="M486.57617,297.74902c-1.81543-12.70898-10.34814-23.56641-22.26807-28.33398l-20.30811-8.12305v-19.63477l.42041-.42041c3.14758,7.19238,10.31952,12.07861,18.44043,12.07861,11.10498,0,20.13916-9.03418,20.13916-20.13867,0-3.83789-1.08252-7.54492-3.09668-10.73535,2.63379-3.45898,4.09668-7.71875,4.09668-12.12598,0-6.78223-3.44922-13.00586-8.92871-16.65723,1.46924-3.02051,2.23193-6.33496,2.23193-9.78223,0-12.37305-10.06592-22.43848-22.43896-22.43848-2.31152,0-4.59961,.35645-6.78174,1.04688-3.56104-8.62207-12.03418-14.48438-21.69482-14.48438-8.71729,0-16.64209,4.89648-20.67578,12.35938-3.03369-1.3457-6.32324-2.04395-9.71191-2.04395-13.23389,0-24,10.7666-24,24,0,3.62402,.83203,7.20312,2.39258,10.44043-6.30713,3.42871-10.39258,10.06641-10.39258,17.55957,0,4.69922,1.65381,9.21289,4.61572,12.7793-1.0625,2.55664-1.61572,5.31055-1.61572,8.10938,0,11.64062,9.47021,21.11133,21.11084,21.11133,6.17633,0,11.90503-2.65186,15.88916-7.22241v16.19897l-20.30859,8.12305c-7.93475,3.17432-14.46289,9.14746-18.42834,16.59912-23.76556-34.98535-63.87451-58.01416-109.26306-58.01416-43.74463,0-82.58008,21.39502-106.612,54.2644-4.39758-6.23682-10.6427-10.89893-18.00421-13.35327l-23.38379-7.79395v-15.20068c9.64056-6.46582,16-17.46143,16-29.9165v-22.34326l14.82861-14.82861c.84717-.84668,1.27002-2.0293,1.15186-3.22266-.11816-1.19238-.76465-2.26855-1.76172-2.93359l-27.59863-18.39941c-13.74072-9.16016-31.49854-9.16016-45.24023,0l-27.59863,18.39941c-.99707,.66504-1.64355,1.74121-1.76172,2.93359-.11816,1.19336,.30469,2.37598,1.15186,3.22266l14.82861,14.82861v22.34326c0,12.45508,6.35944,23.45068,16,29.9165v15.20068l-23.38428,7.79395c-14.72363,4.90918-24.61572,18.63379-24.61572,34.15332v32.93555h8v-32.93555c0-7.90894,3.31848-15.20459,8.81769-20.37891l24.96356,16.64258c.67676,.45117,1.44922,.67188,2.21729,.67188,1.03271,0,2.05664-.39844,2.83008-1.17188l21.17139-21.1709,21.17139,21.1709c1.34863,1.34863,3.46094,1.55762,5.04736,.5l24.98364-16.65576c2.07648,1.95752,3.85236,4.24341,5.26929,6.79688-12.95721,20.4165-20.47168,44.61133-20.47168,70.53076,0,72.78516,59.21484,132,132,132s132-59.21484,132-132c0-17.83789-3.56415-34.85669-10.00537-50.39258,12.4223,3.71729,22.28845,13.59277,25.84814,26.39258h8.23639l.74408-3.7207c4.39355-21.96777,16.44775-41.77344,33.94141-55.76855l4.58057-3.66479,9.99219,3.99683c2.54669,1.01855,4.88525,2.40527,6.98065,4.07056-20.7207,11.13647-35.58911,31.04688-40.24042,54.30249l-.14594,.78418h8.15936c4.50476-21.27051,18.52777-39.34521,37.90662-49.021,2.41254,3.50415,4.03894,7.56348,4.65857,11.90088l.32446,2.27124c-15.62891,4.05176-26.98071,18.37817-26.98071,34.84888h8c0-12.50879,8.41254-23.4292,20.12048-26.87085l3.91956,27.43628,7.91992-1.13086-5.38379-37.68555ZM46.27832,176.62207l23.53906-15.69336c11.04541-7.3623,25.31982-7.3623,36.36523,0l23.53906,15.69336-10.97754,10.97705c-20.16632-4.67847-41.32196-4.67847-61.48828,0l-10.97754-10.97705Zm13.72168,39.37793v-20.83691c18.38379-4.11914,37.61621-4.11914,56,0v20.83691c0,15.43945-12.56055,28-28,28s-28-12.56055-28-28Zm3.49023,74.85254l-19.55261-13.03516c1.03558-.49365,2.09814-.94653,3.20789-1.31641l23.90222-7.96704c2.86292,2.37207,6.1499,4.08911,9.67639,5.08521l-17.23389,17.2334Zm12.50977-28.61792v-12.29883c3.75586,1.33203,7.79321,2.06421,12,2.06421s8.24414-.73218,12-2.06421v12.29883c-3.35498,2.83789-7.55542,4.39331-12,4.39331s-8.64502-1.55542-12-4.39331Zm36.50977,28.61792l-17.23389-17.2334c3.52643-.99609,6.81348-2.71313,9.67639-5.08521l23.90173,7.96704c1.1098,.36987,2.18274,.81152,3.22327,1.30688l-19.5675,13.04468Zm331.49023-66.85254c0,4.09082-1.59277,7.93652-4.48486,10.82812l-4.68701,4.68652c-2.89258,2.89258-6.73779,4.48535-10.82812,4.48535s-7.93555-1.59277-10.82861-4.48633l-4.68604-4.68457c-2.89258-2.89258-4.48535-6.73828-4.48535-10.8291v-14.70215c0-8.62207,5.49561-16.24609,13.67529-18.97266h.00049c2.03906-.68066,4.18164-1.02051,6.32422-1.02051s4.28516,.34082,6.32471,1.02051c8.17969,2.72656,13.67529,10.35059,13.67529,18.97266v14.70215Zm-8,24.68433v13.55029c-3.35498,2.83789-7.55542,4.39331-12,4.39331s-8.64502-1.55542-12-4.39331v-13.55054c3.58698,2.16138,7.70459,3.31592,12,3.31592s8.41315-1.15454,12-3.31567Zm-40-39.38647v14.70215c0,4.69922,1.38239,9.1853,3.95233,12.99683l-.73798,1.18481c-2.4209,3.84082-6.57129,6.13379-11.10352,6.13379-7.22949,0-13.11084-5.88184-13.11084-13.11133,0-2.39844,.65234-4.74219,1.88574-6.77832,1.03027-1.70117,.65234-3.89258-.87158-5.15332-2.55273-2.27832-4.01416-5.53613-4.01416-8.95703,0-5.60059,3.7998-10.4043,9.24023-11.68066,1.3335-.31348,2.41406-1.28711,2.86377-2.58008,.4502-1.29395,.20703-2.72754-.64453-3.80078-2.26318-2.85254-3.45947-6.28906-3.45947-9.93848,0-8.82227,7.17773-16,16-16,3.37744,0,6.60596,1.03906,9.33594,3.00391,1.05615,.76074,2.41504,.95898,3.64502,.53418,1.22998-.42578,2.17578-1.42285,2.53564-2.67285,1.896-6.58301,8.01123-11.18066,14.87109-11.18066,7.45752,0,13.8418,5.29688,15.20898,12.60547,.06348,.38965,.18604,.77637,.37158,1.14746,.89014,1.78027,2.95361,2.63184,4.84277,2.00586,.31201-.10449,.60352-.24316,.87109-.41211,2.1748-1.24902,4.65527-1.90918,7.18213-1.90918,7.96191,0,14.43896,6.47754,14.43896,14.43848,0,3.22656-1.03662,6.27051-2.99902,8.81152-.24171,.29102-.44531,.62207-.60107,.98633-.83008,1.94531-.00098,4.20215,1.89111,5.14844,.1626,.08105,.32764,.14941,.49561,.20703,4.73389,1.71582,7.91016,6.24414,7.91016,11.28613,0,3.40039-1.45166,6.6543-3.98242,8.92871l-.01758,.01562c-1.63086,1.4834-1.75488,4.00684-.27686,5.6416,.07861,.08789,.16016,.16992,.24463,.24805,1.95752,2.21875,3.03223,5.05762,3.03223,8.02734,0,6.69336-5.4458,12.13867-12.13916,12.13867-5.80225,0-10.81348-4.12598-11.9043-9.74414l-.54663-3.09229c1.04004-2.66724,1.59009-5.53003,1.59009-8.479v-14.70215c0-12.07031-7.69434-22.74512-19.14551-26.5625-5.70996-1.90234-11.99951-1.90234-17.7085,0h-.00049c-11.45068,3.81836-19.14551,14.49219-19.14551,26.5625Zm-16,150.70215c0,68.37402-55.62598,124-124,124s-124-55.62598-124-124,55.62598-124,124-124,124,55.62598,124,124Zm26.89575-37.1626c-6.99072-11.9126-19.08044-20.25854-33.08447-22.32959-1.07513-2.12036-2.20172-4.21021-3.38605-6.26318,1.90192-5.88135,5.73718-10.97705,10.77515-14.46021l12.16241,7.29761c8.87634,5.32593,15.23425,14.07324,17.60297,24.12085-1.58069,3.7854-2.94568,7.66699-4.07001,11.63452Zm34.87085-52.57275c-10.61279,8.48975-19.37482,18.95532-25.87134,30.69849-3.85901-8.55249-10.25604-15.84448-18.41675-20.74048l-7.70593-4.62378,17.40045-6.96021c4.73956,3.87891,10.62103,5.98926,16.82697,5.98926s12.0874-2.11035,16.82697-5.98926l1.98126,.79248-1.04163,.8335Z"/>
</g>
</g>
<g id="d"/>
</svg>