<?xml version="1.0" ?>
<!-- Uploaded to: SVG Repo, www.svgrepo.com, Generator: SVG Repo Mixer Tools -->
<svg width="800px" height="800px" viewBox="0 0 512 512" xmlns="http://www.w3.org/2000/svg">
<defs>
<style>.e{fill:#f4f4f4;}.f{fill:#f2c34e;}.g{fill:#cecece;}.h{fill:#dfdfdf;}.i{fill:#41a08e;}.j{fill:#365650;}</style>
</defs>
<g id="a"/>
<g id="b"/>
<g id="c">
<g>
<path class="h" d="M432,408l-57.24341-28.6217c-4.44336-2.22168-9.34302-3.3783-14.31079-3.3783h-56.4458c0,14.02289,9.7395,26.16431,23.42847,29.2063l48.57153,10.7937-64,24-104.35547-30.69281c-17.2627-5.07721-35.28027,5.23633-39.64453,22.69275v.00006l152,56,120-16,56,8v-80l-64,8Z"/>
<path class="h" d="M304.35547,409.30719l-104.35547,30.69281-64-24,48.57153-10.7937c13.68896-3.04199,23.42847-15.18341,23.42847-29.2063h-56.4458c-4.96777,0-9.86743,1.15662-14.31079,3.3783l-57.24341,28.6217-64-8v80l56-8,120,16,152-56v-.00006c-4.36426-17.45642-22.38184-27.76996-39.64453-22.69275Z"/>
<path class="f" d="M388,172v-.00006c-15.46387-15.46393-40.53613-15.46393-56,0l-4,4.00006-4-4.00006c-15.46387-15.46393-40.53613-15.46393-56,0v.00006c-15.46387,15.46399-15.46387,40.53601,0,55.99994l60,60.00006,60-60.00006c15.46387-15.46393,15.46387-40.53595,0-55.99994Z"/>
<rect class="e" height="16" width="8" x="300" y="184"/>
<rect class="e" height="16" width="8" x="348" y="184"/>
<path class="e" d="M328,244c-15.43945,0-28-12.56055-28-28h8c0,11.02783,8.97168,20,20,20s20-8.97217,20-20h8c0,15.43945-12.56055,28-28,28Z"/>
<path class="f" d="M244,172v-.00006c-15.46387-15.46393-40.53613-15.46393-56,0l-4,4.00006-4-4.00006c-15.46387-15.46393-40.53613-15.46393-56,0v.00006c-15.46387,15.46399-15.46387,40.53601,0,55.99994l60,60.00006,60-60.00006c15.46387-15.46393,15.46387-40.53595,0-55.99994Z"/>
<rect class="e" height="16" width="8" x="156" y="184"/>
<rect class="e" height="16" width="8" x="204" y="184"/>
<path class="e" d="M184,244c-15.43945,0-28-12.56055-28-28h8c0,11.02783,8.97168,20,20,20s20-8.97217,20-20h8c0,15.43945-12.56055,28-28,28Z"/>
<path class="f" d="M172,276v-.00006c-15.46387-15.46393-40.53613-15.46393-56,0l-4,4.00006-4-4.00006c-15.46387-15.46393-40.53613-15.46393-56,0v.00006c-15.46387,15.46399-15.46387,40.53601,0,55.99994l60,60.00006,60-60.00006c15.46387-15.46393,15.46387-40.53595,0-55.99994Z"/>
<rect class="e" height="16" width="8" x="84" y="288"/>
<rect class="e" height="16" width="8" x="132" y="288"/>
<path class="e" d="M112,348c-15.43945,0-28-12.56055-28-28h8c0,11.02783,8.97168,20,20,20s20-8.97217,20-20h8c0,15.43945-12.56055,28-28,28Z"/>
<path class="f" d="M316,276v-.00006c-15.46387-15.46393-40.53613-15.46393-56,0l-4,4.00006-4-4.00006c-15.46387-15.46393-40.53613-15.46393-56,0v.00006c-15.46387,15.46399-15.46387,40.53601,0,55.99994l60,60.00006,60-60.00006c15.46387-15.46393,15.46387-40.53595,0-55.99994Z"/>
<rect class="e" height="16" width="8" x="228" y="288"/>
<rect class="e" height="16" width="8" x="276" y="288"/>
<path class="e" d="M256,348c-15.43945,0-28-12.56055-28-28h8c0,11.02783,8.97168,20,20,20s20-8.97217,20-20h8c0,15.43945-12.56055,28-28,28Z"/>
<path class="f" d="M460,276v-.00006c-15.46387-15.46393-40.53613-15.46393-56,0l-4,4.00006-4-4.00006c-15.46387-15.46393-40.53613-15.46393-56,0v.00006c-15.46387,15.46399-15.46387,40.53601,0,55.99994l60,60.00006,60-60.00006c15.46387-15.46393,15.46387-40.53595,0-55.99994Z"/>
<rect class="e" height="16" width="8" x="372" y="288"/>
<rect class="e" height="16" width="8" x="420" y="288"/>
<path class="e" d="M400,348c-15.43945,0-28-12.56055-28-28h8c0,11.02783,8.97168,20,20,20s20-8.97217,20-20h8c0,15.43945-12.56055,28-28,28Z"/>
<path class="i" d="M256,24c-39.77856,0-72.02539,32.24683-72.02539,72.02533s32.24683,72.02533,72.02539,72.02533,72.02539-32.24683,72.02539-72.02533-32.24683-72.02533-72.02539-72.02533Zm-54.01904,72.02533c0-26.7663,19.46729-48.98578,45.01562-53.27209l.00024,44.26892-37.12671,37.12634c-5.00488-8.19189-7.88916-17.82074-7.88916-28.12317Zm20.58887,42.43475l24.427-24.42841,.00537,35.26666c-9.12231-1.52948-17.46973-5.34534-24.43237-10.83826Zm42.43359,10.83734l-.00024-35.26581,24.42749,24.42822c-6.96143,5.49188-15.30688,9.30743-24.42725,10.83759Zm37.12671-25.14905l-37.12695-37.12622-.00928-44.27051c25.55298,4.28235,45.02515,26.50403,45.02515,53.27368,0,10.30237-2.88403,19.93115-7.88892,28.12305Z"/>
<rect class="g" height="8.00008" transform="translate(-135.73972 132.55747) rotate(-20.22451)" width="85.77585" x="260.86842" y="442.82638"/>
<path class="g" d="M200,444c-.47656,0-.95215-.08496-1.4043-.25488l-30.87598-11.57861,2.80859-7.49023,29.625,11.10938,46.9209-13.80029,2.25781,7.6748-48.20312,14.17725c-.36914,.1084-.74902,.1626-1.12891,.1626Z"/>
<rect class="j" height="16" width="8" x="300" y="184"/>
<rect class="j" height="16" width="8" x="348" y="184"/>
<path class="j" d="M328,244c15.43945,0,28-12.56055,28-28h-8c0,11.02783-8.97168,20-20,20s-20-8.97217-20-20h-8c0,15.43945,12.56055,28,28,28Z"/>
<rect class="j" height="16" width="8" x="156" y="184"/>
<rect class="j" height="16" width="8" x="204" y="184"/>
<path class="j" d="M212,216h-8c0,11.02783-8.97168,20-20,20s-20-8.97217-20-20h-8c0,15.43945,12.56055,28,28,28s28-12.56055,28-28Z"/>
<rect class="j" height="16" width="8" x="84" y="288"/>
<rect class="j" height="16" width="8" x="132" y="288"/>
<path class="j" d="M140,320h-8c0,11.02783-8.97168,20-20,20s-20-8.97217-20-20h-8c0,15.43945,12.56055,28,28,28s28-12.56055,28-28Z"/>
<rect class="j" height="16" width="8" x="228" y="288"/>
<rect class="j" height="16" width="8" x="276" y="288"/>
<path class="j" d="M256,340c-11.02832,0-20-8.97217-20-20h-8c0,15.43945,12.56055,28,28,28s28-12.56055,28-28h-8c0,11.02783-8.97168,20-20,20Z"/>
<rect class="j" height="16" width="8" x="372" y="288"/>
<rect class="j" height="16" width="8" x="420" y="288"/>
<path class="j" d="M400,348c15.43945,0,28-12.56055,28-28h-8c0,11.02783-8.97168,20-20,20s-20-8.97217-20-20h-8c0,15.43945,12.56055,28,28,28Z"/>
<path class="j" d="M440.56543,468.04004c-.3623-.05225-.73145-.05322-1.09375-.00488l-119.01855,15.86914-52.88232-19.48328,77.81201-28.6676c1.91602-.70605,2.99316-2.74219,2.49805-4.72363-.01636-.06525-.03687-.12854-.05371-.1936l29.57715-11.09106c1.6582-.62158,2.70996-2.25879,2.58594-4.0249s-1.39453-3.24072-3.12207-3.625l-48.57129-10.79346c-10.625-2.36084-18.40039-10.8457-19.99512-21.30176h52.14453c4.32422,0,8.6543,1.02197,12.52148,2.95605l57.24316,28.62158c.70605,.35303,1.50098,.48975,2.28516,.3916l64-8-.99219-7.93848-62.79785,7.8501-25.95337-12.97675,56.07544-56.0755c16.99902-16.99902,16.99902-44.6582,0-61.65723-8.23438-8.23438-19.18262-12.76953-30.82812-12.76953s-22.59375,4.53516-30.82812,12.76953l-1.17188,1.17188-1.17188-1.17188c-8.23438-8.23438-19.18262-12.76953-30.82812-12.76953-2.49829,0-4.96143,.22125-7.37549,.63043l30.20361-30.20367c16.99902-16.99902,16.99902-44.6582,0-61.65723-8.23438-8.23438-19.18262-12.76953-30.82812-12.76953s-22.59375,4.53516-30.82812,12.76953l-1.17188,1.17188-1.17188-1.17188c-6.88623-6.88617-15.6731-11.17322-25.17578-12.39636,18.43164-13.88586,30.37305-35.94775,30.37305-60.74963,0-41.92041-34.10449-76.02539-76.02539-76.02539s-76.02539,34.10498-76.02539,76.02539c0,24.80188,11.94141,46.86377,30.37305,60.74963-9.50269,1.22314-18.28955,5.51019-25.17578,12.39636l-1.17188,1.17188-1.17188-1.17188c-8.23438-8.23438-19.18262-12.76953-30.82812-12.76953s-22.59375,4.53516-30.82812,12.76953c-16.99902,16.99902-16.99902,44.6582,0,61.65723l30.20361,30.20367c-2.41406-.40918-4.8772-.63043-7.37549-.63043-11.64551,0-22.59375,4.53516-30.82812,12.76953l-1.17188,1.17188-1.17188-1.17188c-8.23438-8.23438-19.18262-12.76953-30.82812-12.76953s-22.59375,4.53516-30.82812,12.76953c-16.99902,16.99902-16.99902,44.6582,0,61.65723l56.07544,56.0755-25.95337,12.97675-62.79785-7.8501-.99219,7.93848,64,8c.78418,.09814,1.5791-.03857,2.28516-.3916l57.24316-28.62158c3.86719-1.93408,8.19727-2.95605,12.52148-2.95605h52.14453c-1.59473,10.45605-9.37012,18.94092-19.99512,21.30176l-48.57129,10.79346c-1.72754,.38428-2.99805,1.85889-3.12207,3.625s.92773,3.40332,2.58594,4.0249l64,24c.8125,.30518,1.7002,.33643,2.5332,.09229l104.35547-30.69287c7.29102-2.14453,14.94531-1.24756,21.54297,2.53027,5.55469,3.1792,9.72754,8.03467,12.00977,13.89111l-147.49023,54.33838-119.01855-15.86914c-.3623-.04834-.73145-.04736-1.09375,.00488l-56,8,1.13086,7.91992,55.45312-7.92188,119.45312,15.92676c.17578,.02344,.35156,.03516,.52832,.03516,.4707,0,.93848-.08301,1.38281-.24658l62.61743-23.06958,62.61694,23.06958c.44434,.16357,.91211,.24658,1.38281,.24658,.17676,0,.35254-.01172,.52832-.03516l119.45312-15.92676,55.45312,7.92188,1.13086-7.91992-56-8Zm-72.56543-199.62158c9.11621,0,18.23145,3.47021,25.17188,10.41016l4,4c1.56055,1.56152,4.0957,1.56152,5.65625,0l4-4c13.88086-13.87988,36.46289-13.87988,50.34375,0,13.87891,13.87939,13.87891,36.46338,0,50.34277l-57.17188,57.17188-57.17188-57.17188c-13.87891-13.87939-13.87891-36.46338,0-50.34277,6.94043-6.93994,16.05566-10.41016,25.17188-10.41016Zm-54.82812,60.75293l-57.17188,57.17188-57.17188-57.17188c-13.87891-13.87939-13.87891-36.46338,0-50.34277,6.94043-6.93994,16.05566-10.41016,25.17188-10.41016s18.23145,3.47021,25.17188,10.41016l4,4c1.56055,1.56152,4.0957,1.56152,5.65625,0l4-4c13.88086-13.87988,36.46289-13.87988,50.34375,0,13.87891,13.87939,13.87891,36.46338,0,50.34277Zm-57.17188-146.4845c-1.68115-3.89728-3.95679-7.59454-6.82715-10.95801,2.25098,.20142,4.5249,.3219,6.82715,.3219s4.57617-.12048,6.82715-.3219c-2.87036,3.36346-5.146,7.06073-6.82715,10.95801Zm0,34.62622c2.11768,4.90961,5.16699,9.5105,9.17188,13.5155l30.20361,30.20367c-2.41406-.40918-4.8772-.63043-7.37549-.63043-11.64551,0-22.59375,4.53516-30.82812,12.76953l-1.17188,1.17188-1.17188-1.17188c-8.23438-8.23438-19.18262-12.76953-30.82812-12.76953-2.49829,0-4.96143,.22125-7.37549,.63043l30.20361-30.20367c4.00488-4.005,7.0542-8.6059,9.17188-13.5155Zm40-52.89465c9.11621,0,18.23145,3.47021,25.17188,10.41016l4,4c1.56055,1.56152,4.0957,1.56152,5.65625,0l4-4c13.88086-13.87988,36.46289-13.87988,50.34375,0,13.87891,13.87939,13.87891,36.46338,0,50.34277l-57.17188,57.17188-57.17188-57.17188c-13.87891-13.87939-13.87891-36.46338,0-50.34277,2.86841-2.8681,6.11182-5.13397,9.56958-6.81683,1.94824-.66211,3.86475-1.39148,5.73877-2.20398,3.21802-.92242,6.54004-1.38934,9.86353-1.38934Zm-108.02539-68.39307c0-37.50928,30.51562-68.02539,68.02539-68.02539s68.02539,30.51611,68.02539,68.02539c0,27.70929-16.66187,51.58582-40.4856,62.17926-2.19287,.65051-4.32642,1.47296-6.38525,2.4613-6.66309,2.18616-13.76978,3.38483-21.15454,3.38483s-14.49146-1.19867-21.15454-3.38483c-2.05884-.98834-4.19238-1.81079-6.38501-2.4613-23.82373-10.59351-40.48584-34.46997-40.48584-62.17926Zm-61.14648,129.146c-13.87891-13.87939-13.87891-36.46338,0-50.34277,6.94043-6.93994,16.05566-10.41016,25.17188-10.41016s18.23145,3.47021,25.17188,10.41016l4,4c1.56055,1.56152,4.0957,1.56152,5.65625,0l4-4c9.47095-9.47034,22.99146-12.47339,35.03638-9.02039,1.87329,.81219,3.78931,1.5412,5.73682,2.20312,3.45825,1.68286,6.7019,3.94885,9.57056,6.81726,13.87891,13.87939,13.87891,36.46338,0,50.34277l-57.17188,57.17188-57.17188-57.17188Zm-72,53.65723c6.94043-6.93994,16.05566-10.41016,25.17188-10.41016s18.23145,3.47021,25.17188,10.41016l4,4c1.56055,1.56152,4.0957,1.56152,5.65625,0l4-4c13.88086-13.87988,36.46289-13.87988,50.34375,0,13.87891,13.87939,13.87891,36.46338,0,50.34277l-57.17188,57.17188-57.17188-57.17188c-13.87891-13.87939-13.87891-36.46338,0-50.34277Zm123.06201,131.96033c-4.48535,3.21326-8.25488,7.47327-10.87817,12.56854l-16.99731-6.37408,27.87549-6.19446Zm22.26318,24.9967l-25.59302-9.59753c6.17798-11.05524,19.46826-16.71667,31.95532-13.04358l35.30811,10.38495-41.67041,12.25616Zm103.07324-30.31592l-47.22681,13.89038-47.22632-13.89038c-3.85034-1.1322-7.76074-1.57306-11.59131-1.39703,9.09229-6.1424,14.81787-16.47589,14.81787-28.07269,0-2.20898-1.79102-4-4-4h-56.44629c-5.55957,0-11.12695,1.31445-16.09961,3.80078l-3.19629,1.59814,42.57031-42.57031c4.00488-4.005,7.0542-8.6059,9.17188-13.5155,2.11768,4.90961,5.16699,9.5105,9.17188,13.5155l60,60c.78027,.78076,1.80469,1.17139,2.82812,1.17139s2.04785-.39062,2.82812-1.17139l60-60c4.00488-4.005,7.0542-8.6059,9.17188-13.5155,2.11768,4.90961,5.16699,9.5105,9.17188,13.5155l42.57031,42.57031-3.19629-1.59814c-4.97266-2.48633-10.54004-3.80078-16.09961-3.80078h-56.44629c-2.20898,0-4,1.79102-4,4,0,11.57446,5.70312,21.89124,14.76489,28.0379-3.84131-.15387-7.72729,.31122-11.53833,1.43182Zm31.00098,5.3454l27.75781,6.16827-16.98853,6.37073c-2.5376-4.96045-6.19604-9.23883-10.76929-12.539Z"/>
<path class="j" d="M250.99707,87.02197l-.00098-44.26855c0-1.17676-.51758-2.29346-1.41602-3.05371-.89746-.75928-2.08301-1.0874-3.24609-.89111-28.01758,4.7002-48.35254,28.76367-48.35254,57.2168,0,10.6875,2.93066,21.1333,8.47559,30.2085,.63867,1.04639,1.72266,1.7417,2.94043,1.88672,.1582,.01855,.31543,.02783,.47266,.02783,1.05469,0,2.07422-.41699,2.82812-1.17139l37.12695-37.12646c.75-.75049,1.17188-1.76758,1.17188-2.82861Zm-40.16797,30.51074c-3.18262-6.68262-4.84766-14.02539-4.84766-21.50732,0-22.92236,15.30371-42.53955,37.01465-48.31836l.00098,37.6582-32.16797,32.16748Z"/>
<path class="j" d="M262.1748,89.85059l37.12695,37.12646c.75391,.75439,1.77344,1.17139,2.82812,1.17139,.15723,0,.31445-.00928,.47266-.02783,1.21777-.14502,2.30176-.84033,2.94043-1.88672,5.54492-9.0752,8.47559-19.521,8.47559-30.2085,0-28.45801-20.33984-52.52197-48.36328-57.21875-1.16016-.19727-2.34766,.13184-3.24512,.8916-.89844,.76025-1.41602,1.87744-1.41602,3.0542l.00879,44.27051c0,1.06055,.42188,2.07764,1.17188,2.82764Zm43.84375,6.1748c0,7.48193-1.66504,14.82471-4.84766,21.50732l-32.16797-32.16797-.00781-37.66064c21.71582,5.77686,37.02344,25.39502,37.02344,48.32129Z"/>
<path class="j" d="M246.34082,153.24316c.21973,.03711,.44141,.05518,.66113,.05518,.93945,0,1.85645-.33105,2.58398-.94678,.89844-.76025,1.41602-1.87744,1.41602-3.05371l-.00488-35.2666c0-1.61768-.97461-3.07617-2.46973-3.69531-1.49512-.61865-3.21484-.27734-4.3584,.86719l-24.42773,24.42822c-.80859,.80811-1.23242,1.92285-1.16504,3.06348s.61914,2.19775,1.51562,2.90527c7.62598,6.0166,16.70312,10.04297,26.24902,11.64307Zm-3.34277-29.55566l.00293,20.6499c-5.0498-1.35986-9.87891-3.5166-14.27441-6.37744l14.27148-14.27246Z"/>
<path class="j" d="M267.83105,111.20312c-1.14258-1.14355-2.86426-1.4873-4.3584-.8667-1.49512,.61914-2.46973,2.07764-2.46973,3.69531v35.26562c0,1.17676,.51758,2.29346,1.41602,3.05371,.72754,.61523,1.64453,.94629,2.58398,.94629,.21973,0,.44141-.01807,.66211-.05518,9.54297-1.60107,18.61719-5.62646,26.24316-11.6416,.89648-.70752,1.44824-1.76514,1.51562-2.90576s-.35645-2.25537-1.16504-3.06348l-24.42773-24.42822Zm1.17188,33.13281v-20.64697l14.27051,14.27051c-4.39551,2.86035-9.22168,5.0166-14.27051,6.37646Z"/>
</g>
</g>
<g id="d"/>
</svg>