<?xml version="1.0" ?>
<!-- Uploaded to: SVG Repo, www.svgrepo.com, Generator: SVG Repo Mixer Tools -->
<svg width="800px" height="800px" viewBox="0 0 512 512" xmlns="http://www.w3.org/2000/svg">
<defs>
<style>.e{fill:#f4c762;}.f{fill:#eab84b;}.g{fill:#8c8c8c;}.h{fill:#dfdfdf;}.i{fill:#41a08e;}.j{fill:#349381;}.k{fill:#365650;}.l{fill:#6e6e6e;}.m{fill:#575757;}.n{fill:#75bbad;}</style>
</defs>
<g id="a"/>
<g id="b"/>
<g id="c">
<g>
<rect class="g" height="120" width="80" x="296" y="376"/>
<path class="h" d="M374.31079,279.1554l-30.31079-15.1554h0c10.43286-15.64917,16-34.03638,16-52.84448v-3.15557c0-13.25481-10.74514-23.99995-23.99995-23.99995h-.00005c-13.25483,0-24,10.74517-24,24v3.15552c0,18.80811,5.56714,37.19531,16,52.84448h0l-30.31079,15.1554c-10.84112,5.42056-17.68921,16.50101-17.68921,28.62174v68.22286h112v-68.22286c0-12.12074-6.84809-23.20118-17.68921-28.62174Z"/>
<path class="e" d="M374.31079,279.1554l-30.31079-15.1554h-16l-30.31079,15.1554c-10.84106,5.42053-17.68921,16.50098-17.68921,28.6217v68.2229h112v-68.2229c0-12.12073-6.84814-23.20117-17.68921-28.6217Z"/>
<rect class="l" height="80" width="8" x="332" y="416"/>
<rect class="g" height="120" width="80" x="144" y="376"/>
<path class="h" d="M222.31079,279.1554l-30.31079-15.1554h0c10.43286-15.64917,16-34.03638,16-52.84448v-3.15557c0-13.25481-10.74514-23.99995-23.99995-23.99995h-.00005c-13.25483,0-24,10.74517-24,24v3.15552c0,18.80811,5.56714,37.19531,16,52.84448h0l-30.31079,15.1554c-10.84112,5.42056-17.68921,16.50101-17.68921,28.62174v68.22286h112v-68.22286c0-12.12074-6.84809-23.20118-17.68921-28.62174Z"/>
<path class="e" d="M222.31079,279.1554l-30.31079-15.1554h-16l-30.31079,15.1554c-10.84106,5.42053-17.68921,16.50098-17.68921,28.6217v68.2229h112v-68.2229c0-12.12073-6.84814-23.20117-17.68921-28.6217Z"/>
<path class="h" d="M302.31079,279.1554l-30.31079-15.1554c10.24463-10.24463,16-24.1394,16-38.62744v-9.37256c0-17.6731-14.3269-32-32-32s-32,14.3269-32,32v9.37256c0,14.48804,5.75537,28.38281,16,38.62744l-30.31079,15.1554c-10.84106,5.42053-17.68921,16.50098-17.68921,28.6217v76.2229c0,8.83655,7.16357,16,16,16h8v96h80v-96h8c8.83643,0,16-7.16345,16-16v-76.2229c0-12.12073-6.84814-23.20117-17.68921-28.6217Z"/>
<path class="i" d="M302.31079,279.1554l-30.31079-15.1554c-8.83643,8.83655-23.16357,8.83655-32,0l-30.31079,15.1554c-7.56494,3.78247-13.17578,10.32471-15.88208,18.04944l7.94336,5.29541c8.90234,5.93494,14.24951,15.92627,14.24951,26.62561v62.87415h80v-62.87415c0-10.69934,5.34717-20.69067,14.24951-26.62561l7.94336-5.29541c-2.7063-7.72473-8.31714-14.26697-15.88208-18.04944Z"/>
<path class="h" d="M470.31079,255.1554l-30.31079-15.1554,10.62549-15.93848c3.50439-5.25659,5.37451-11.43274,5.37451-17.75037v-46.31116l-64,16v30.31116c0,6.31763,1.87012,12.49377,5.37451,17.75037l10.62549,15.93848-30.31079,15.1554c-10.84106,5.42053-17.68921,16.50098-17.68921,28.6217v108.2229c0,8.83655,7.16357,16,16,16h8v88h80v-88h8c8.83643,0,16-7.16345,16-16v-108.2229c0-12.12073-6.84814-23.20117-17.68921-28.6217Z"/>
<path class="i" d="M470.31079,255.1554l-30.31079-15.1554c-8.83643,8.83655-23.16357,8.83655-32,0l-30.31079,15.1554c-10.84106,5.42053-17.68921,16.50098-17.68921,28.6217v52.2229h24v56h80v-56h24v-52.2229c0-12.12073-6.84814-23.20117-17.68921-28.6217Z"/>
<path class="f" d="M143.04858,210.573v-.00012c-4.51318-6.76965-6.1521-15.05505-4.5564-23.0332l2.25146-11.25793c2.03442-10.17188-1.14941-20.68762-8.48462-28.02271-8.02173-8.02173-18.07251-13.7124-29.07837-16.46387-9.96704-2.4917-20.39429-2.4917-30.36133,0-11.00586,2.75146-21.05664,8.44214-29.07837,16.46387-7.33521,7.33508-10.51904,17.85083-8.48462,28.02271l2.25146,11.25793c1.5957,7.97815-.04321,16.26355-4.5564,23.0332v.00012c-5.60376,8.40527-6.70996,19.03064-2.95825,28.41016l13.20679,33.01685h89.6001l13.20679-33.01685c3.75171-9.37952,2.64551-20.00488-2.95825-28.41016Z"/>
<rect class="g" height="104" width="80" x="384" y="392"/>
<rect class="l" height="72" width="8" x="420" y="424"/>
<path class="h" d="M134.31079,263.1554l-30.31079-15.1554c10.43286-15.64917,16-34.03638,16-52.84436v-3.15564l-16-32-48,16v19.15564c0,18.80798,5.56714,37.19519,16,52.84436l-30.31079,15.1554c-10.84106,5.42053-17.68921,16.50098-17.68921,28.6217v108.2229c0,8.83655,7.16357,16,16,16h2l-10,80h112l-10-80h2c8.83643,0,16-7.16345,16-16v-108.2229c0-12.12073-6.84814-23.20117-17.68921-28.6217Z"/>
<path class="i" d="M256.02539,24c-39.77856,0-72.02539,32.24683-72.02539,72.02539s32.24683,72.02527,72.02539,72.02527,72.02539-32.24683,72.02539-72.02527-32.24707-72.02539-72.02539-72.02539Zm-54.01904,72.02539c0-26.76636,19.46729-48.98584,45.01562-53.27222l.00024,44.26904-37.12695,37.12622c-5.00488-8.19189-7.88892-17.82068-7.88892-28.12305Zm20.58862,42.43469l24.42725-24.42834,.00537,35.2666c-9.12231-1.52954-17.46973-5.34534-24.43262-10.83826Zm42.43359,10.83728v-35.26575l24.42749,24.42822c-6.96167,5.49182-15.30713,9.3075-24.42749,10.83752Zm37.12695-25.14893l-37.12695-37.12622-.00952-44.27051c25.55322,4.28223,45.02539,26.50391,45.02539,53.27368,0,10.30225-2.88428,19.93115-7.88892,28.12305Z"/>
<path class="f" d="M288,216h-64v-.00003c0-17.67309,14.32687-31.99997,31.99997-31.99997h.00006c17.67309,0,31.99997,14.32687,31.99997,31.99997v.00003Z"/>
<rect class="l" height="104" width="80" x="216" y="392"/>
<rect class="m" height="72" width="8" x="252" y="424"/>
<rect class="l" height="80" width="8" x="180" y="416"/>
<path class="i" d="M134.31079,263.1554l-30.31079-15.1554h0c-5.12549,15.37622-26.87451,15.37622-32,0h0l-30.31079,15.1554c-10.84106,5.42053-17.68921,16.50098-17.68921,28.6217v52.2229h24v24h80v-24h24v-52.2229c0-12.12073-6.84814-23.20117-17.68921-28.6217Z"/>
<polygon class="n" points="48 368 32 496 144 496 128 368 48 368"/>
<path class="j" d="M132,344h-8v-8c0-.42969,.06934-.85693,.20508-1.26465l2.34277-7.0293c3.31055-9.93018,2.55566-20.55518-2.12598-29.91748l7.15625-3.57715c5.63574,11.27344,6.54492,24.06689,2.55957,36.02441l-2.1377,6.41309v7.35107Z"/>
<path class="j" d="M52,344h-8v-7.35107l-2.1377-6.41357c-3.98535-11.95703-3.07617-24.75049,2.55957-36.02393l7.15625,3.57715c-4.68164,9.3623-5.43652,19.9873-2.12598,29.91699l2.34277,7.02979c.13574,.40771,.20508,.83496,.20508,1.26465v8Z"/>
<path class="f" d="M392,168v8l48.15884-4.81588c18.07587-1.80759,31.84116-17.01806,31.84116-35.18408v-.00003h-48c-17.67311,0-32,14.32689-32,32Z"/>
<path class="j" d="M428,246.25964c-2.64502,.47278-5.35498,.47278-8,0v41.74036h8v-41.74036Z"/>
<rect class="j" height="24" width="8" x="460" y="312"/>
<rect class="j" height="24" width="8" x="380" y="312"/>
<path class="k" d="M472.09961,251.57764l-26.25781-13.12891,8.1123-12.16846c3.95508-5.93359,6.0459-12.83838,6.0459-19.96924v-38.59595c9.76855-7.1814,16-18.7356,16-31.71509,0-2.20898-1.79102-4-4-4h-48c-19.85059,0-36,16.14941-36,36v38.31104c0,7.13086,2.09082,14.03564,6.0459,19.96924l8.1123,12.16846-26.25781,13.12891c-7.08057,3.54028-12.60059,9.15039-16.01587,15.89246l-10.13452-5.06726c9.33691-15.47314,14.25-33.09473,14.25-51.24707v-3.15576c0-15.43945-12.56055-28-28-28s-28,12.56055-28,28v3.15576c0,18.15234,4.91309,35.77393,14.25,51.24707l-22.25,11.125-21.48242-10.74121c8.73145-10.49707,13.48242-23.58984,13.48242-37.41406v-9.37256c0-19.85059-16.14941-36-36-36s-36,16.14941-36,36v9.37256c0,13.82422,4.75098,26.91699,13.48242,37.41406l-17.48242,8.74121-18.25-9.125c9.33691-15.47314,14.25-33.09473,14.25-51.24707v-3.15576c0-15.43945-12.56055-28-28-28s-28,12.56055-28,28v3.15576c0,18.15234,4.91309,35.77393,14.25,51.24707l-19.9126,9.9563c-2.44922-3.8252-5.62988-7.18237-9.42261-9.8761l8.80591-22.01428c4.24219-10.60498,2.99219-22.61035-3.34375-32.11523-3.95312-5.92822-5.36035-13.0415-3.96191-20.02979l2.25-11.25732c2.30273-11.50879-1.27734-23.33545-9.57812-31.63623-8.53223-8.53271-19.23047-14.58936-30.93555-17.51514-10.56738-2.64209-21.73633-2.64258-32.30176-.00049-11.70703,2.92627-22.4043,8.9834-30.93652,17.51611-8.30078,8.30029-11.88086,20.12695-9.57812,31.63525l2.25098,11.2583c1.39746,6.98779-.00977,14.10107-3.96289,20.02979-6.33594,9.50439-7.58594,21.50977-3.34375,32.11426l8.80591,22.01477c-9.41602,6.68762-15.08521,17.47107-15.08521,29.29382v108.22314c0,10.17627,7.64526,18.58447,17.49097,19.82507l-9.45972,75.67883,7.9375,.99219,15.56201-124.49609H124.46924l15.56201,124.49609,7.9375-.99219-9.45972-75.67883c9.8457-1.2406,17.49097-9.6488,17.49097-19.82507v-20h32v4c0,11.02783,8.97168,20,20,20h4v92h8v-100h72v100h8v-92h4c11.02832,0,20-8.97217,20-20v-4h32v12c0,11.02783,8.97168,20,20,20h4v84h8v-100h72v100h8v-84h4c11.02832,0,20-8.97217,20-20v-108.22314c0-13.72363-7.625-26.06152-19.90039-32.19922Zm-76.09961-83.57764c0-15.43945,12.56055-28,28-28h43.75c-1.81055,14.34229-13.23828,25.729-27.98926,27.2041l-43.76074,4.37598v-3.58008Zm4.70215,53.84277c-3.07617-4.61475-4.70215-9.98535-4.70215-15.53174v-26.69116l44.55762-4.45581c4.04199-.40417,7.88037-1.41016,11.44238-2.90942v34.0564c0,5.54639-1.62598,10.91699-4.70215,15.53174l-10.36084,15.54077c-7.20459,6.96411-18.66943,6.96411-25.87402,0l-10.36084-15.54077Zm-144.70215-33.84277c14.08105,0,25.76245,10.44922,27.70972,24h-55.41943c1.94727-13.55078,13.62866-24,27.70972-24Zm-28,37.37256v-5.37256h56v5.37256c0,13.52344-5.2666,26.2373-14.82812,35.79883-7.26367,7.2627-19.08008,7.2627-26.34375,0-9.56152-9.56152-14.82812-22.27539-14.82812-35.79883Zm-191.7207-12.58057c5.13867-7.70654,6.96777-16.95312,5.15137-26.03662l-2.25195-11.2583c-1.77637-8.87988,.98633-18.00488,7.39062-24.40967,7.50781-7.50781,16.91992-12.83691,27.2207-15.41162,9.29492-2.32422,19.12402-2.32422,28.4209,0,10.2998,2.57471,19.71191,7.90381,27.21973,15.41211,6.4043,6.4043,9.16699,15.5293,7.38965,24.40967l-2.25,11.25732c-1.81738,9.08398,.01172,18.33057,5.15039,26.03662,4.87402,7.31152,5.83594,16.54736,2.57227,24.70605l-8.39233,20.98071-24.15063-12.07544c9.33691-15.47314,14.25-33.09473,14.25-51.24707v-3.15576c0-.62109-.14453-1.2334-.42188-1.78906l-16-32c-.89062-1.78027-2.95996-2.63525-4.84277-2.00586l-48,16c-1.63379,.54443-2.73535,2.07324-2.73535,3.79492v19.15576c0,18.15234,4.91309,35.77393,14.25,51.24707l-24.15063,12.07532-8.39233-20.98108c-3.26367-8.1582-2.30176-17.39404,2.57227-24.70508Zm64.39258,32.98926c-.19946,.29907-.33936,.62488-.45068,.95947l-.01611-.00537c-2.16211,6.48584-7.72168,8.79688-12.20508,8.79688s-10.04297-2.31104-12.20508-8.79688l-.01611,.00537c-.11133-.33459-.25122-.6604-.45068-.95947-10.02734-15.04199-15.32812-32.54834-15.32812-50.62549v-16.27295l41.97363-13.99121,14.02637,28.05273v2.21143c0,18.07715-5.30078,35.5835-15.32812,50.62549Zm-57.19336,20.95166l26.62769-13.31384c3.69312,6.25574,10.31934,10.11316,17.8938,10.11316s14.20068-3.85742,17.8938-10.11316l26.62769,13.31384c9.54785,4.77393,15.47852,14.37012,15.47852,25.04395v48.22314h-16v-3.35107l2.1377-6.41309c3.98535-11.95752,3.07617-24.75098-2.55957-36.02441l-7.15625,3.57715c4.68164,9.3623,5.43652,19.9873,2.12598,29.91748l-2.34277,7.0293c-.13574,.40771-.20508,.83496-.20508,1.26465v28H52v-28c0-.42969-.06934-.85693-.20508-1.26465l-2.34277-7.02979c-3.31055-9.92969-2.55566-20.55469,2.12598-29.91699l-7.15625-3.57715c-5.63574,11.27344-6.54492,24.06689-2.55957,36.02393l2.1377,6.41357v3.35107H28v-48.22314c0-10.67383,5.93066-20.27002,15.47852-25.04395Zm-4.99609,145.16028c-5.90161-.74976-10.48242-5.79163-10.48242-11.89319v-52h16v19.75098l-5.51758,44.14221Zm99.03516,0l-5.51758-44.14221v-19.75098h16v52c0,6.10156-4.58081,11.14343-10.48242,11.89319Zm18.48242-39.89319v-80.22314c0-4.26367-.73828-8.39246-2.12085-12.24414l23.90991-11.95508c1.02637-.51318,1.78223-1.44189,2.07715-2.55078,.29395-1.10889,.09863-2.29102-.53809-3.24561-10.02734-15.04199-15.32812-32.54834-15.32812-50.62549v-3.15576c0-11.02783,8.97168-20,20-20s20,8.97217,20,20v3.15576c0,18.07715-5.30078,35.5835-15.32812,50.62549-.63672,.95459-.83203,2.13672-.53809,3.24561,.29492,1.10889,1.05078,2.0376,2.07715,2.55078l16.88037,8.44019c-11.79297,6.27002-19.09131,18.34424-19.09131,31.75903v64.22314h-32Zm52,24c-6.61719,0-12-5.3833-12-12v-76.22314c0-1.38879,.10547-2.75781,.30103-4.10193l3.23022,2.15369c7.80762,5.20508,12.46875,13.91406,12.46875,23.29736v66.87402h-4Zm12-8v-58.87402c0-12.06445-5.99316-23.26172-16.03125-29.95361l-5.23242-3.48865c2.62744-5.50574,7.03027-10.09485,12.74219-12.95081l27.88818-13.94409c4.84326,3.88098,10.73755,5.82593,16.6333,5.82593s11.79004-1.94495,16.6333-5.82593l27.88818,13.94409c5.71191,2.85596,10.11475,7.44507,12.74219,12.95081l-5.23242,3.48865c-10.03809,6.69189-16.03125,17.88916-16.03125,29.95361v58.87402h-72Zm96-4c0,6.6167-5.38281,12-12,12h-4v-66.87402c0-9.3833,4.66113-18.09229,12.46875-23.29736l3.23022-2.15369c.19556,1.34412,.30103,2.71313,.30103,4.10193v76.22314Zm8-12v-64.22314c0-11.9834-5.81543-22.90845-15.46289-29.57324l21.25195-10.62598c1.02637-.51318,1.78223-1.44189,2.07715-2.55078,.29395-1.10889,.09863-2.29102-.53809-3.24561-10.02734-15.04199-15.32812-32.54834-15.32812-50.62549v-3.15576c0-11.02783,8.97168-20,20-20s20,8.97217,20,20v3.15576c0,18.07715-5.30078,35.5835-15.32812,50.62549-.63672,.95459-.83203,2.13672-.53809,3.24561,.29492,1.10889,1.05078,2.0376,2.07715,2.55078l14.87598,7.43799c-.70068,2.82251-1.08691,5.75513-1.08691,8.76123v88.22314h-32Zm52,32c-6.61719,0-12-5.3833-12-12v-52h16v64h-4Zm12-16v-76h-8v20h-16v-48.22314c0-10.67383,5.93066-20.27002,15.47852-25.04395l27.88818-13.94409c3.74463,3.00049,8.1167,4.8418,12.6333,5.52271v37.68848h8v-37.68848c4.5166-.68091,8.88867-2.52222,12.6333-5.52271l27.88818,13.94409c9.54785,4.77393,15.47852,14.37012,15.47852,25.04395v48.22314h-16v-20h-8v76h-72Zm84,16h-4v-64h16v52c0,6.6167-5.38281,12-12,12Z"/>
<rect class="k" height="72" width="8" x="420" y="424"/>
<path class="k" d="M256.02539,172.05078c41.9209,0,76.02539-34.10498,76.02539-76.02539s-34.10449-76.02539-76.02539-76.02539-76.02539,34.10498-76.02539,76.02539,34.10449,76.02539,76.02539,76.02539Zm0-144.05078c37.50977,0,68.02539,30.51611,68.02539,68.02539s-30.51562,68.02539-68.02539,68.02539-68.02539-30.51611-68.02539-68.02539,30.51562-68.02539,68.02539-68.02539Z"/>
<path class="k" d="M209.89551,128.14844c1.05469,0,2.07422-.41699,2.82812-1.17139l37.12695-37.12646c.75-.75049,1.17188-1.76758,1.17188-2.82861l-.00098-44.26855c0-1.17676-.51758-2.29346-1.41602-3.05371-.89746-.75928-2.08203-1.08691-3.24609-.89111-28.01758,4.70068-48.35352,28.76367-48.35352,57.2168,0,10.68604,2.93066,21.13232,8.47656,30.2085,.63867,1.04639,1.72266,1.7417,2.94043,1.88672,.1582,.01855,.31543,.02783,.47266,.02783Zm-3.88965-32.12305c0-22.92236,15.30469-42.53906,37.01562-48.31836l.00098,37.6582-32.16797,32.16748c-3.18359-6.68311-4.84863-14.02588-4.84863-21.50732Z"/>
<path class="k" d="M262.2002,89.85059l37.12695,37.12646c.75391,.75439,1.77344,1.17139,2.82812,1.17139,.15723,0,.31445-.00928,.47266-.02783,1.21777-.14502,2.30176-.84033,2.94043-1.88672,5.54492-9.0752,8.47559-19.521,8.47559-30.2085,0-28.45801-20.33984-52.52197-48.36328-57.21875-1.15918-.19678-2.34766,.13184-3.24512,.8916-.89844,.76025-1.41602,1.87744-1.41602,3.0542l.00879,44.27051c0,1.06055,.42188,2.07764,1.17188,2.82764Zm43.84375,6.1748c0,7.48193-1.66504,14.82471-4.84766,21.50732l-32.16797-32.16797-.00781-37.66064c21.71582,5.77686,37.02344,25.39502,37.02344,48.32129Z"/>
<path class="k" d="M248.55273,110.33594c-1.49512-.61816-3.21582-.27734-4.3584,.86719l-24.42773,24.42822c-.80859,.80811-1.23242,1.92285-1.16504,3.06348s.61914,2.19775,1.51562,2.90527c7.62598,6.0166,16.70312,10.04297,26.24902,11.64307,.21973,.03711,.44141,.05518,.66113,.05518,.93945,0,1.85645-.33105,2.58398-.94678,.89844-.76025,1.41602-1.87744,1.41602-3.05371l-.00488-35.2666c0-1.61768-.97461-3.07617-2.46973-3.69531Zm-19.80078,27.62402l14.27148-14.27246,.00293,20.6499c-5.0498-1.35986-9.87891-3.5166-14.27441-6.37744Z"/>
<path class="k" d="M267.85645,111.20312c-1.14258-1.14355-2.86426-1.48584-4.3584-.8667-1.49512,.61914-2.46973,2.07764-2.46973,3.69531v35.26562c0,1.17676,.51758,2.29346,1.41602,3.05371,.72754,.61523,1.64453,.94629,2.58398,.94629,.21973,0,.44141-.01807,.66211-.05518,9.54297-1.60107,18.61719-5.62646,26.24316-11.6416,.89648-.70752,1.44824-1.76514,1.51562-2.90576s-.35645-2.25537-1.16504-3.06348l-24.42773-24.42822Zm1.17188,33.13281v-20.64697l14.27051,14.27051c-4.39551,2.86035-9.22168,5.0166-14.27051,6.37646Z"/>
<rect class="k" height="72" width="8" x="252" y="424"/>
<rect class="k" height="80" width="8" x="180" y="416"/>
<rect class="k" height="80" width="8" x="332" y="416"/>
</g>
</g>
<g id="d"/>
</svg>