<?xml version="1.0" ?>
<!-- Uploaded to: SVG Repo, www.svgrepo.com, Generator: SVG Repo Mixer Tools -->
<svg width="800px" height="800px" viewBox="0 0 512 512" xmlns="http://www.w3.org/2000/svg">
<defs>
<style>.e{fill:#f4c762;}.f{fill:#f4f4f4;}.g{fill:#bebebe;}.h{fill:#e2ac40;}.i{fill:#dfdfdf;}.j{fill:#41a08e;}.k{fill:#365650;}</style>
</defs>
<g id="a"/>
<g id="b"/>
<g id="c">
<g>
<circle class="j" cx="256" cy="240" r="216"/>
<path class="e" d="M434.34326,218.34326l-12.68652-12.68652c-7.54248-7.54248-19.771-7.54248-27.31348,0l-12.68652,12.68652c-3.62207,3.62183-5.65674,8.53442-5.65674,13.65674v32c0,5.12231,2.03467,10.03467,5.65674,13.65674l20.68652,20.68652c7.54248,7.54248,7.54248,19.771,0,27.31348l-4.68652,4.68652c-3.62207,3.62183-5.65674,8.53442-5.65674,13.65674s2.03467,10.03467,5.65674,13.65674l22.6001,22.60034c32.25586-37.7395,51.74316-86.71948,51.74316-140.25708,0-5.38232-.20361-10.71655-.59082-16h-23.40918c-5.12207,0-10.03467-2.03491-13.65674-5.65674Z"/>
<path class="e" d="M272,24.59058V57.37256c0,4.24341-1.68555,8.31299-4.68652,11.31372l-22.6272,22.62744c-3.00049,3.00049-4.68628,7.07007-4.68628,11.31372v1.37256c0,8.83643,7.16357,16,16,16h25.37256c4.24365,0,8.31299,1.68555,11.31396,4.68628,6.24805,6.24829,16.37891,6.24829,22.62695,0l17.37305-17.37256c6.24805-6.24829,16.37891-6.24829,22.62695,0l8,8c3.00098,3.00049,4.68652,7.07007,4.68652,11.31372v10.74512c0,4.24341,1.68555,8.31299,4.68652,11.31372l6.62695,6.62744c3.00098,3.00049,7.07031,4.68628,11.31396,4.68628h66.06396c-29.91357-74.9751-100.61621-129.25269-184.69141-135.40942Z"/>
<path class="e" d="M55.30859,160h11.43652c8.48706,0,16.62622,3.37134,22.62744,9.37256l8,8c12.49683,12.49683,32.75806,12.49683,45.25488,0,6.00122-6.00122,9.37256-14.14062,9.37256-22.62744v-18.74512c0-17.6731,14.3269-32,32-32h2.74512c8.48706,0,16.62622-3.37158,22.62744-9.37256l13.25488-13.25488c6.00122-6.00122,9.37256-14.14062,9.37256-22.62744V25.33398c-80.54102,8.90527-147.73193,62.08228-176.69141,134.66602Z"/>
<path class="e" d="M120,352c-8.83643-8.83667-8.83643-23.16357,0-32l9.37256-9.37256c4.24341-4.24365,6.62744-9.99902,6.62744-16v-24c0-12.49683-10.13062-22.62744-22.62744-22.62744-6.00122,0-11.75659-2.38403-16-6.62744l-18.74512-18.74512c-4.24341-4.24365-9.99878-6.62744-16-6.62744h-21.29346c-.87134,7.88159-1.33398,15.88623-1.33398,24,0,84.80615,48.88184,158.18335,120,193.52979v-32.15723c0-6.00122-2.38403-11.75659-6.62744-16l-33.37256-33.37256Z"/>
<path class="g" d="M272,368h-64l-48,16-144-8v96l144-24,85.59717,36.28467c6.74023,2.40723,14.09229,2.48535,20.88232,.22217l61.52051-20.50684-56-96Z"/>
<path class="i" d="M368,384l-64-16h-32l-48,48c13.25488,13.25488,34.74512,13.25488,48,0l16-16,40,64,40-16,128,24v-96l-128,8Z"/>
<path class="f" d="M256,152c-50.81006,0-92,41.1897-92,92s41.18994,92,92,92,92-41.18994,92-92-41.18994-92-92-92Zm-69,92c0-34.18945,24.86621-62.5708,57.49951-68.0459l.00049,56.5459-47.42334,47.42236c-6.39258-10.46362-10.07666-22.7627-10.07666-35.92236Zm26.29858,54.20312l31.20142-31.20312,.00684,45.04712c-11.65234-1.95361-22.31445-6.82788-31.20825-13.84399Zm54.20142,13.84277v-45.0459l31.20166,31.20288c-8.89209,7.01489-19.55176,11.88843-31.20166,13.84302Zm47.42334-32.12354l-47.42334-47.42236-.01172-56.54785c32.63965,5.46973,57.51172,33.85425,57.51172,68.04785,0,13.15967-3.68408,25.45874-10.07666,35.92236Z"/>
<rect class="h" height="8" width="16" x="104" y="124"/>
<rect class="h" height="8" width="16" x="80" y="276"/>
<rect class="h" height="8" width="16" x="424" y="268"/>
<rect class="h" height="8" width="16" x="392" y="124"/>
<rect class="h" height="8" width="16" x="304" y="68"/>
<path class="k" d="M368.7373,444.06836c-.74609-.13965-1.5166-.06348-2.22266,.21777l-36.89551,14.75781-38.22754-61.16406c-.64551-1.0332-1.72754-1.71582-2.93945-1.85449-1.20117-.13477-2.41895,.2832-3.28027,1.14648l-16,16c-5.65527,5.65527-13.1748,8.76953-21.17188,8.76953-6.64844,0-12.96582-2.15234-18.15723-6.12793l43.81445-43.81348h29.85059l63.52246,15.88086c.39844,.09863,.80762,.13574,1.21875,.11133l128-8-.49805-7.98438-127.38184,7.96094-63.39941-15.84961c-.31641-.0791-.64258-.11914-.96973-.11914h-96c-.42969,0-.85742,.06934-1.26465,.20508l-47.27637,15.75879-143.2373-7.95801-.44336,7.98828,144,8c.07422,.00391,.14746,.00586,.22168,.00586,.42969,0,.85645-.06934,1.26465-.20508l47.38477-15.79492h53.69434l-41.17188,41.17188c-1.5625,1.56152-1.5625,4.09473,0,5.65625,7.16602,7.16602,16.69336,11.11328,26.82812,11.11328s19.66211-3.94727,26.82812-11.11328l12.44434-12.44434,34.64307,55.42773-56.70068,18.90039c-5.87988,1.95996-12.3252,1.90137-18.16602-.15625l-85.4873-36.23828c-.69922-.2959-1.47168-.38867-2.21875-.2627L15.34277,468.05469l1.31445,7.89062,142.85254-23.80859,84.52637,35.83105c.07129,.03027,.14355,.05859,.2168,.08398,3.89551,1.3916,8.00293,2.08789,12.11133,2.08789,3.85059,0,7.70215-.6123,11.37988-1.83789l61.52051-20.50684-.00439-.01343c.07471-.0249,.15088-.03809,.2251-.06763l38.9209-15.56836,126.85645,23.78613,1.47461-7.86328-128-24Z"/>
<path class="k" d="M79.69727,357.77539c-23.35352-34.88867-35.69727-75.61426-35.69727-117.77539,0-6.74536,.33081-13.41406,.94995-20h17.677c4.97559,0,9.65332,1.9375,13.17188,5.45508l18.74609,18.74609c5.02832,5.0293,11.71582,7.79883,18.82812,7.79883,10.27051,0,18.62695,8.35645,18.62695,18.62695v24c0,4.97559-1.9375,9.65332-5.45508,13.17188l-9.37305,9.37305c-10.38184,10.38184-10.38184,27.27441,0,37.65625l8,8,5.65625-5.65625-8-8c-7.2627-7.2627-7.2627-19.08105,0-26.34375l9.37305-9.37305c5.0293-5.02832,7.79883-11.71582,7.79883-18.82812v-24c0-14.68262-11.94434-26.62695-26.62695-26.62695-4.97559,0-9.65332-1.9375-13.17188-5.45508l-18.74609-18.74609c-5.02832-5.0293-11.71582-7.79883-18.82812-7.79883h-16.77515c2.21167-16.68628,6.37402-32.76318,12.24536-48h8.64795c7.47949,0,14.51074,2.91309,19.7998,8.20117l8,8c7.01758,7.01855,16.23633,10.52734,25.45508,10.52734s18.4375-3.50879,25.45508-10.52734c6.7998-6.7998,10.54492-15.83984,10.54492-25.45605v-18.74512c0-15.43945,12.56055-28,28-28h2.74512c9.61621,0,18.65625-3.74512,25.45605-10.54492l13.25391-13.25391c6.7998-6.7998,10.54492-15.83984,10.54492-25.45605V28.94995c6.58594-.61914,13.25464-.94995,20-.94995,4.02783,0,8.02686,.12402,12,.34668v29.02637c0,3.20508-1.24805,6.21875-3.51465,8.48535l-22.62695,22.62695c-3.77832,3.77734-5.8584,8.7998-5.8584,14.1416v1.37305c0,11.02832,8.97168,20,20,20h25.37305c3.20508,0,6.21875,1.24805,8.48535,3.51465,3.77734,3.77734,8.7998,5.8584,14.1416,5.8584s10.36426-2.08105,14.1416-5.8584l17.37305-17.37305c2.2666-2.26562,5.28027-3.51465,8.48535-3.51465s6.21875,1.24902,8.48535,3.51465l8,8c2.2666,2.2666,3.51465,5.28027,3.51465,8.48535v10.74609c0,5.3418,2.08008,10.36426,5.8584,14.1416l6.62695,6.62695c3.77734,3.77832,8.7998,5.8584,14.1416,5.8584h63.27588c6.8042,17.65771,11.30859,36.4458,13.14697,56h-19.0498c-4.09082,0-7.93652-1.59277-10.8291-4.48535l-12.68555-12.68555c-4.40332-4.4043-10.25781-6.8291-16.48535-6.8291s-12.08203,2.4248-16.48535,6.8291l-12.68555,12.68555c-4.4043,4.40332-6.8291,10.25781-6.8291,16.48535v32c0,6.22754,2.4248,12.08203,6.8291,16.48535l20.68555,20.68555c5.9707,5.97168,5.9707,15.68652,0,21.6582l-4.68555,4.68555c-4.4043,4.40332-6.8291,10.25781-6.8291,16.48535s2.4248,12.08203,6.8291,16.48535l2.34277,2.34277,5.65625-5.65625-2.34277-2.34277c-2.89258-2.89258-4.48535-6.73828-4.48535-10.8291s1.59277-7.93652,4.48535-10.8291l4.68555-4.68555c9.09082-9.08984,9.09082-23.88086,0-32.9707l-20.68555-20.68555c-2.89258-2.89258-4.48535-6.73828-4.48535-10.8291v-32c0-4.09082,1.59277-7.93652,4.48535-10.8291l12.68555-12.68555c5.9707-5.9707,15.6875-5.9707,21.6582,0l12.68555,12.68555c4.40332,4.4043,10.25781,6.8291,16.48535,6.8291h19.65332c.22266,3.97314,.34668,7.97217,.34668,12,0,42.16113-12.34375,82.88672-35.69727,117.77539l6.64844,4.44922c24.2373-36.20898,37.04883-78.47363,37.04883-122.22461,0-58.76465-22.88379-114.01172-64.43652-155.56348-41.55176-41.55273-96.79883-64.43652-155.56348-64.43652s-114.01172,22.88379-155.56348,64.43652C58.88379,125.98828,36,181.23535,36,240c0,43.75098,12.81152,86.01562,37.04883,122.22461l6.64844-4.44922ZM450.63086,156h-60.00391c-3.20508,0-6.21875-1.24805-8.48535-3.51465l-6.62695-6.62695c-2.2666-2.2666-3.51465-5.28027-3.51465-8.48535v-10.74609c0-5.3418-2.08008-10.36426-5.8584-14.1416l-8-8c-3.77734-3.77734-8.7998-5.8584-14.1416-5.8584s-10.36426,2.08105-14.1416,5.8584l-17.37305,17.37305c-2.2666,2.26562-5.28027,3.51465-8.48535,3.51465s-6.21875-1.24902-8.48535-3.51465c-3.77734-3.77832-8.7998-5.8584-14.1416-5.8584h-25.37305c-6.61719,0-12-5.38281-12-12v-1.37305c0-3.20508,1.24805-6.21875,3.51465-8.48535l22.62695-22.62695c3.77832-3.77734,5.8584-8.7998,5.8584-14.1416V28.94995c78.4292,7.37402,144.56152,57.64697,174.63086,127.05005ZM228,29.85181v28.89331c0,7.47949-2.91309,14.51074-8.20117,19.7998l-13.25391,13.25391c-5.28906,5.28809-12.32031,8.20117-19.7998,8.20117h-2.74512c-19.85059,0-36,16.14941-36,36v18.74512c0,7.47949-2.91309,14.51074-8.20117,19.7998-10.91797,10.91602-28.67969,10.91602-39.59766,0l-8-8c-6.7998-6.7998-15.83984-10.54492-25.45605-10.54492h-5.37573C90.4104,88.96948,153.09033,39.78003,228,29.85181Z"/>
<path class="k" d="M256,148c-52.93457,0-96,43.06543-96,96s43.06543,96,96,96,96-43.06543,96-96-43.06543-96-96-96Zm0,184c-48.52344,0-88-39.47656-88-88s39.47656-88,88-88,88,39.47656,88,88-39.47656,88-88,88Z"/>
<path class="k" d="M248.5,232.5v-56.5459c0-1.17676-.51758-2.29297-1.41602-3.05371-.89746-.75879-2.08203-1.08203-3.24609-.8916-35.25195,5.91406-60.83789,36.19043-60.83789,71.99121,0,13.44727,3.6875,26.59082,10.66406,38.00879,.63867,1.0459,1.72266,1.74121,2.94043,1.88574,.1582,.01953,.31543,.02832,.47266,.02832,1.05469,0,2.07422-.41699,2.82812-1.17188l47.42285-47.42285c.75-.75,1.17188-1.76758,1.17188-2.82812Zm-8-1.65723l-42.50977,42.51074c-4.58594-9.05469-6.99023-19.10352-6.99023-29.35352,0-30.27637,20.54785-56.11523,49.5-63.14551v49.98828Z"/>
<path class="k" d="M268.14941,172.00684c-1.16797-.19141-2.34766,.13184-3.24512,.89258-.89844,.75977-1.41602,1.87695-1.41602,3.05371l.01172,56.54785c0,1.06055,.42188,2.07715,1.17188,2.82715l47.42285,47.42188c.75391,.75488,1.77344,1.17188,2.82812,1.17188,.15723,0,.31445-.00879,.47266-.02832,1.21777-.14453,2.30078-.83984,2.94043-1.88574,6.97656-11.41699,10.66406-24.55957,10.66406-38.00781,0-35.80664-25.5918-66.08398-60.85059-71.99316Zm45.86035,101.3457l-42.50977-42.50977-.01074-49.99121c28.95801,7.02637,49.51074,32.86621,49.51074,63.14844,0,10.25-2.4043,20.29883-6.99023,29.35254Z"/>
<path class="k" d="M246.03027,263.30469c-1.49707-.62012-3.21582-.27637-4.3584,.86719l-31.20117,31.20312c-.80859,.80762-1.23242,1.92285-1.16504,3.0625,.06738,1.14062,.61914,2.19824,1.51562,2.90625,9.59473,7.56934,21.01465,12.63477,33.02441,14.64844,.21973,.03613,.44141,.05469,.66113,.05469,.93945,0,1.85645-.33105,2.58398-.94727,.89844-.75977,1.41602-1.87695,1.41602-3.05371l-.00684-45.04688c0-1.61719-.97461-3.07617-2.46973-3.69434Zm-26.6084,34.43262l21.08008-21.08105,.00391,30.48438c-7.51074-1.8418-14.67383-5.03613-21.08398-9.40332Z"/>
<path class="k" d="M270.32812,264.17188c-1.14258-1.14355-2.86426-1.4873-4.3584-.86719-1.49512,.61914-2.46973,2.07715-2.46973,3.69531v45.0459c0,1.17676,.51758,2.29297,1.41602,3.05371,.72754,.61523,1.64453,.94629,2.58398,.94629,.21973,0,.44141-.01855,.66211-.05469,12.00488-2.01367,23.42285-7.0791,33.01758-14.64746,.89648-.70801,1.44824-1.76562,1.51562-2.90527,.06738-1.14062-.35645-2.25586-1.16504-3.06348l-31.20215-31.20312Zm1.17188,42.96777v-30.48242l21.0791,21.08008c-6.41016,4.36621-13.57031,7.55957-21.0791,9.40234Z"/>
<rect class="k" height="8" width="16" x="104" y="124"/>
<rect class="k" height="8" width="16" x="80" y="276"/>
<rect class="k" height="8" width="16" x="424" y="268"/>
<rect class="k" height="8" width="16" x="392" y="124"/>
<rect class="k" height="8" width="16" x="304" y="68"/>
</g>
</g>
<g id="d"/>
</svg>